<svg xmlns="http://www.w3.org/2000/svg" viewBox="0 0 32 32">
  <defs>
    <linearGradient id="gold" x1="0%" y1="0%" x2="100%" y2="100%">
      <stop offset="0%" stop-color="#fff8d4"/>
      <stop offset="30%" stop-color="#ffd700"/>
      <stop offset="70%" stop-color="#daa520"/>
      <stop offset="100%" stop-color="#b8860b"/>
    </linearGradient>
  </defs>
  <g fill="none" stroke="url(#gold)" stroke-width="1.8" stroke-linecap="round" stroke-linejoin="round">
    <!-- Center petal -->
    <path d="M16 6 C14.5 9, 14 12, 14.5 15 C15 12, 15.5 9, 16 6Z"/>
    <path d="M16 6 C17.5 9, 18 12, 17.5 15 C17 12, 16.5 9, 16 6Z"/>
    <!-- Inner left petal -->
    <path d="M13 8 C11 11, 10.5 14, 12 17 C12.5 14, 12.5 11, 13 8Z"/>
    <path d="M13 8 C14 11, 14.5 14, 14 17 C13.5 14, 13 11, 13 8Z"/>
    <!-- Inner right petal -->
    <path d="M19 8 C21 11, 21.5 14, 20 17 C19.5 14, 19.5 11, 19 8Z"/>
    <path d="M19 8 C18 11, 17.5 14, 18 17 C18.5 14, 19 11, 19 8Z"/>
    <!-- Outer left petal -->
    <path d="M9 13 C7.5 16, 8 19, 11 21 C10 18, 9.5 15, 9 13Z"/>
    <path d="M9 13 C11 15, 12 18, 13 21 C11.5 19, 10 16, 9 13Z"/>
    <!-- Outer right petal -->
    <path d="M23 13 C24.5 16, 24 19, 21 21 C22 18, 22.5 15, 23 13Z"/>
    <path d="M23 13 C21 15, 20 18, 19 21 C20.5 19, 22 16, 23 13Z"/>
    <!-- Base leaves -->
    <path d="M5 22 C7 19, 10 18, 13 19 C10 20, 7 21, 5 22Z"/>
    <path d="M13 19 C14.5 20, 15.5 21, 16 22"/>
    <path d="M27 22 C25 19, 22 18, 19 19 C22 20, 25 21, 27 22Z"/>
    <path d="M19 19 C17.5 20, 16.5 21, 16 22"/>
  </g>
</svg>
